<svg width="23" height="23" viewBox="0 0 23 23" fill="none" xmlns="http://www.w3.org/2000/svg">
<g clip-path="url(#clip0)">
<path d="M15.5 8.99999C15.776 8.99999 16 8.77598 16 8.49998V2.49998C16 1.122 14.879 0 13.5 0H2.49998C1.12102 0 0 1.122 0 2.49998V20.5C0 21.878 1.12102 23 2.49998 23H13.5C14.879 23 16 21.878 16 20.5V14.5C16 14.224 15.776 14 15.5 14C15.224 14 15 14.224 15 14.5V20.5C15 21.327 14.327 22 13.5 22H2.49998C1.67297 22 0.999984 21.327 0.999984 20.5V2.49998C0.999984 1.67297 1.67297 0.999984 2.49998 0.999984H13.5C14.327 0.999984 15 1.67297 15 2.49998V8.49998C15 8.77598 15.224 8.99999 15.5 8.99999Z" fill="black"/>
<path d="M22.5 11H6.50002C6.22402 11 6 11.224 6 11.5C6 11.776 6.22402 12 6.50002 12H22.5C22.776 12 23 11.776 23 11.5C23 11.224 22.776 11 22.5 11Z" fill="black"/>
<path d="M22.853 11.148L19.853 8.14802C19.658 7.95302 19.341 7.95302 19.146 8.14802C18.951 8.34302 18.951 8.66003 19.146 8.85503L21.792 11.501L19.146 14.147C18.951 14.342 18.951 14.659 19.146 14.854C19.244 14.951 19.372 15.0001 19.5 15.0001C19.628 15.0001 19.756 14.9511 19.853 14.8551L22.853 11.8551C23.048 11.66 23.048 11.343 22.853 11.148Z" fill="black"/>
</g>
<defs>
<clipPath id="clip0">
<rect width="23" height="23" fill="white"/>
</clipPath>
</defs>
</svg>
